<svg width="218" height="48" viewBox="0 0 218 48" fill="none" xmlns="http://www.w3.org/2000/svg">
<path d="M112.951 13.2822C114.578 13.2822 115.654 12.5289 116.408 11.5065L115.453 10.9818C114.941 11.7486 114.013 12.2867 112.951 12.2867C111.027 12.2867 109.534 10.7666 109.534 8.6411C109.534 6.50216 111.027 4.99548 112.951 4.99548C114.013 4.99548 114.941 5.54703 115.453 6.30037L116.394 5.77572C115.681 4.76679 114.578 4 112.951 4C110.408 4 108.377 5.88334 108.377 8.6411C108.377 11.3988 110.408 13.2822 112.951 13.2822Z" fill="#dd2413"/>
<path d="M118.974 13.1208H119.983V7.51109H121.88V6.62323H117.091V7.51109H118.974V13.1208Z" fill="#dd2413"/>
<path d="M123.001 14.7485L122.84 15.6633C123.028 15.7171 123.364 15.7574 123.58 15.7574C124.441 15.744 125.1 15.3808 125.49 14.4391L128.745 6.62323H127.642L125.49 11.9504L123.324 6.62323H122.234L124.952 13.188L124.521 14.1701C124.293 14.7082 123.997 14.8561 123.553 14.8561C123.391 14.8561 123.149 14.8158 123.001 14.7485Z" fill="#dd2413"/>
<path d="M128.597 12.2329V14.7754H129.485V13.1208H134.638V14.7754H135.526V12.2329H134.772V6.62323H130.306L130.171 8.11645C129.916 10.7666 129.512 11.7352 129.176 12.2329H128.597ZM131.059 8.37205L131.14 7.51109H133.763V12.2329H130.158C130.44 11.8428 130.844 10.928 131.059 8.37205Z" fill="#dd2413"/>
<path d="M136.905 13.1208H137.874L141.304 8.06264V13.1208H142.313V6.62323H141.317L137.914 11.5872V6.62323H136.905V13.1208Z" fill="#dd2413"/>
<path d="M144.112 13.1208H145.296L146.883 10.6052H148.659V13.1208H149.668V6.62323H146.238C144.919 6.62323 144.18 7.51109 144.18 8.61419C144.18 9.70384 144.879 10.4437 145.848 10.5648L144.112 13.1208ZM148.659 9.71729H146.345C145.605 9.71729 145.215 9.25991 145.215 8.61419C145.215 7.96847 145.632 7.51109 146.345 7.51109H148.659V9.71729Z" fill="#dd2413"/>
<path d="M111.538 28.4162C113.516 28.4162 114.753 26.8826 114.753 24.9993C114.753 23.1159 113.516 21.5958 111.538 21.5958C109.56 21.5958 108.323 23.1159 108.323 24.9993C108.323 26.8826 109.56 28.4162 111.538 28.4162ZM111.538 27.5149C110.152 27.5149 109.372 26.3311 109.372 24.9993C109.372 23.6809 110.152 22.4971 111.538 22.4971C112.924 22.4971 113.69 23.6809 113.69 24.9993C113.69 26.3311 112.924 27.5149 111.538 27.5149Z" fill="#dd2413"/>
<path d="M116.021 24.4881C116.021 26.8557 117.245 28.4162 119.236 28.4162C121.241 28.4162 122.438 26.8557 122.438 24.9858C122.438 23.2236 121.241 21.7572 119.398 21.7572C118.241 21.7572 117.34 22.376 116.842 23.2236C117.084 21.811 117.905 20.7079 120.151 20.3178L121.819 20.0353V19.134L120.124 19.4031C117.138 19.8873 116.021 21.542 116.021 24.4881ZM121.389 24.9858C121.389 26.3311 120.622 27.5149 119.236 27.5149C117.851 27.5149 117.071 26.3311 117.071 24.9858C117.071 23.6809 117.851 22.4971 119.236 22.4971C120.622 22.4971 121.389 23.6809 121.389 24.9858Z" fill="#dd2413"/>
<path d="M125.131 30.73V27.2727C125.656 27.9992 126.436 28.4162 127.324 28.4162C129.033 28.4162 130.217 27.0979 130.217 24.9993C130.217 22.8872 129.033 21.5958 127.324 21.5958C126.409 21.5958 125.602 22.0666 125.131 22.7258V21.7572H124.123V30.73H125.131ZM129.154 24.9993C129.154 26.4387 128.374 27.5149 127.069 27.5149C126.275 27.5149 125.481 27.0306 125.131 26.4656V23.533C125.481 22.968 126.275 22.4971 127.069 22.4971C128.374 22.4971 129.154 23.5599 129.154 24.9993Z" fill="#dd2413"/>
<path d="M135.91 28.2548H136.919V23.7886C136.919 22.2146 135.775 21.5958 134.403 21.5958C133.34 21.5958 132.506 21.9456 131.807 22.672L132.278 23.3715C132.856 22.7527 133.488 22.4702 134.269 22.4702C135.21 22.4702 135.91 22.968 135.91 23.8424V25.0127C135.385 24.4074 134.645 24.1249 133.757 24.1249C132.654 24.1249 131.484 24.8109 131.484 26.2638C131.484 27.6763 132.654 28.4162 133.757 28.4162C134.632 28.4162 135.372 28.1068 135.91 27.5149V28.2548ZM135.91 26.8826C135.52 27.4207 134.834 27.6898 134.121 27.6898C133.179 27.6898 132.52 27.0979 132.52 26.2773C132.52 25.4432 133.179 24.8513 134.121 24.8513C134.834 24.8513 135.52 25.1204 135.91 25.6584V26.8826Z" fill="#dd2413"/>
<path d="M138.336 27.3669C138.955 28.0126 139.856 28.4162 141.067 28.4162C142.842 28.4162 143.838 27.6091 143.838 26.5194C143.838 25.4432 142.802 24.9858 142.116 24.932C142.816 24.8378 143.703 24.3132 143.703 23.3446C143.703 22.2415 142.6 21.5958 140.986 21.6093C139.843 21.6093 139.035 22.0397 138.457 22.672L138.995 23.2908C139.506 22.7124 140.139 22.4299 141.026 22.4299C141.968 22.4299 142.654 22.8469 142.654 23.4657C142.654 24.2056 141.955 24.5553 140.959 24.5553H139.843V25.3759H140.959C142.035 25.3759 142.775 25.645 142.775 26.4521C142.775 27.1382 142.129 27.5821 141.067 27.5821C140.179 27.5821 139.479 27.2458 138.914 26.6674L138.336 27.3669Z" fill="#dd2413"/>
<path d="M148.309 28.4162C150.286 28.4162 151.524 26.8826 151.524 24.9993C151.524 23.1159 150.286 21.5958 148.309 21.5958C146.331 21.5958 145.094 23.1159 145.094 24.9993C145.094 26.8826 146.331 28.4162 148.309 28.4162ZM148.309 27.5149C146.923 27.5149 146.143 26.3311 146.143 24.9993C146.143 23.6809 146.923 22.4971 148.309 22.4971C149.695 22.4971 150.461 23.6809 150.461 24.9993C150.461 26.3311 149.695 27.5149 148.309 27.5149Z" fill="#dd2413"/>
<path d="M153.169 28.2548H156.518C157.971 28.2548 158.711 27.5418 158.711 26.4925C158.711 25.7526 158.187 25.0665 157.5 24.9051C158.079 24.7302 158.577 24.2056 158.577 23.4253C158.577 22.4433 157.85 21.7572 156.492 21.7572H153.169V28.2548ZM157.541 23.5733C157.541 24.0845 157.178 24.4746 156.492 24.4746H154.178V22.6451H156.492C157.164 22.6451 157.541 23.0083 157.541 23.5733ZM157.662 26.3714C157.662 26.9902 157.231 27.3669 156.518 27.3669H154.178V25.3625H156.518C157.272 25.3625 157.662 25.8468 157.662 26.3714Z" fill="#dd2413"/>
<path d="M164.496 28.2548H165.505V23.7886C165.505 22.2146 164.362 21.5958 162.99 21.5958C161.927 21.5958 161.093 21.9456 160.393 22.672L160.864 23.3715C161.443 22.7527 162.075 22.4702 162.855 22.4702C163.797 22.4702 164.496 22.968 164.496 23.8424V25.0127C163.972 24.4074 163.232 24.1249 162.344 24.1249C161.241 24.1249 160.07 24.8109 160.07 26.2638C160.07 27.6763 161.241 28.4162 162.344 28.4162C163.218 28.4162 163.958 28.1068 164.496 27.5149V28.2548ZM164.496 26.8826C164.106 27.4207 163.42 27.6898 162.707 27.6898C161.765 27.6898 161.106 27.0979 161.106 26.2773C161.106 25.4432 161.765 24.8513 162.707 24.8513C163.42 24.8513 164.106 25.1204 164.496 25.6584V26.8826Z" fill="#dd2413"/>
<path d="M168.712 28.2548H169.72V22.6451H171.617V21.7572H166.828V22.6451H168.712V28.2548Z" fill="#dd2413"/>
<path d="M172.406 24.9993C172.406 27.0306 173.792 28.4162 175.715 28.4162C176.778 28.4162 177.652 28.0664 178.298 27.4207L177.814 26.7615C177.303 27.2862 176.549 27.5821 175.809 27.5821C174.41 27.5821 173.549 26.5598 173.469 25.3356H178.729V25.08C178.729 23.1294 177.572 21.5958 175.608 21.5958C173.751 21.5958 172.406 23.1159 172.406 24.9993ZM175.594 22.4299C177.074 22.4299 177.72 23.6271 177.733 24.5957H173.469C173.522 23.6002 174.209 22.4299 175.594 22.4299Z" fill="#dd2413"/>
<path d="M179.412 27.4342V28.4162C180.663 28.4162 181.551 27.5149 181.887 23.3446L181.955 22.6451H184.578V28.2548H185.587V21.7572H181.08L180.946 23.2908C180.65 26.627 180.098 27.4342 179.412 27.4342Z" fill="#dd2413"/>
<path d="M188.61 21.7572H187.601V28.2548H190.951C192.404 28.2548 193.09 27.2055 193.09 26.1696C193.09 25.1338 192.417 24.0845 190.951 24.0845H188.61V21.7572ZM188.61 24.9724H190.87C191.704 24.9724 192.054 25.5239 192.054 26.1696C192.054 26.8154 191.691 27.3669 190.87 27.3669H188.61V24.9724Z" fill="#dd2413"/>
<path d="M194.63 28.2548H195.639V25.349H199.029V28.2548H200.038V21.7572H199.029V24.4612H195.639V21.7572H194.63V28.2548Z" fill="#dd2413"/>
<path d="M203.061 21.7572H202.052V28.2548H205.402C206.855 28.2548 207.541 27.2055 207.541 26.1696C207.541 25.1338 206.868 24.0845 205.402 24.0845H203.061V21.7572ZM208.604 28.2548H209.612V21.7572H208.604V28.2548ZM203.061 24.9724H205.321C206.155 24.9724 206.505 25.5239 206.505 26.1696C206.505 26.8154 206.142 27.3669 205.321 27.3669H203.061V24.9724Z" fill="#dd2413"/>
<path d="M215.84 28.2548H217.01L214.508 24.9186L216.862 21.7572H215.692L213.889 24.2325L212.087 21.7572H210.916L213.27 24.9186L210.782 28.2548H211.939L213.889 25.5912L215.84 28.2548Z" fill="#dd2413"/>
<path d="M109.883 43.3888H110.892V37.7791H112.789V36.8912H108V37.7791H109.883V43.3888Z" fill="#dd2413"/>
<path d="M113.578 40.1333C113.578 42.1646 114.963 43.5502 116.887 43.5502C117.95 43.5502 118.824 43.2004 119.47 42.5547L118.986 41.8956C118.474 42.4202 117.721 42.7162 116.981 42.7162C115.582 42.7162 114.721 41.6938 114.64 40.4696H119.9V40.214C119.9 38.2634 118.743 36.7298 116.779 36.7298C114.923 36.7298 113.578 38.2499 113.578 40.1333ZM116.766 37.5639C118.246 37.5639 118.891 38.7611 118.905 39.7297H114.64C114.694 38.7342 115.38 37.5639 116.766 37.5639Z" fill="#dd2413"/>
<path d="M125.312 43.3888H126.482L123.98 40.0526L126.334 36.8912H125.164L123.361 39.3665L121.558 36.8912H120.388L122.742 40.0526L120.254 43.3888H121.41L123.361 40.7252L125.312 43.3888Z" fill="#dd2413"/>
<path d="M127.643 43.3888H128.652V40.483H132.042V43.3888H133.051V36.8912H132.042V39.5952H128.652V36.8912H127.643V43.3888Z" fill="#dd2413"/>
<path d="M137.904 43.5502C139.882 43.5502 141.119 42.0166 141.119 40.1333C141.119 38.2499 139.882 36.7298 137.904 36.7298C135.927 36.7298 134.689 38.2499 134.689 40.1333C134.689 42.0166 135.927 43.5502 137.904 43.5502ZM137.904 42.6489C136.519 42.6489 135.738 41.4651 135.738 40.1333C135.738 38.8149 136.519 37.6311 137.904 37.6311C139.29 37.6311 140.057 38.8149 140.057 40.1333C140.057 41.4651 139.29 42.6489 137.904 42.6489Z" fill="#dd2413"/>
<path d="M141.813 42.5682V43.5502C143.065 43.5502 143.952 42.6489 144.289 38.4786L144.356 37.7791H146.979V43.3888H147.988V36.8912H143.482L143.347 38.4248C143.051 41.761 142.5 42.5682 141.813 42.5682Z" fill="#dd2413"/>
<path d="M152.841 43.5502C154.819 43.5502 156.056 42.0166 156.056 40.1333C156.056 38.2499 154.819 36.7298 152.841 36.7298C150.864 36.7298 149.626 38.2499 149.626 40.1333C149.626 42.0166 150.864 43.5502 152.841 43.5502ZM152.841 42.6489C151.456 42.6489 150.675 41.4651 150.675 40.1333C150.675 38.8149 151.456 37.6311 152.841 37.6311C154.227 37.6311 154.994 38.8149 154.994 40.1333C154.994 41.4651 154.227 42.6489 152.841 42.6489Z" fill="#dd2413"/>
<path d="M162.248 37.7791V36.8912H157.701V43.3888H158.71V37.7791H162.248Z" fill="#dd2413"/>
<path d="M163.56 43.3888H164.529L167.959 38.3307V43.3888H168.968V36.8912H167.973L164.569 41.8552V36.8912H163.56V43.3888Z" fill="#dd2413"/>
<path d="M173.687 35.9899C174.588 35.9899 175.368 35.5729 175.866 34.8868L175.288 34.416C174.924 34.9272 174.359 35.25 173.687 35.25C173.014 35.25 172.449 34.9272 172.072 34.416L171.494 34.8868C172.005 35.5729 172.799 35.9899 173.687 35.9899ZM170.983 43.3888H171.951L175.382 38.3307V43.3888H176.391V36.8912H175.395L171.992 41.8552V36.8912H170.983V43.3888Z" fill="#dd2413"/>
<path d="M24.4742 37.2442C24.0309 36.22 23.9599 34.85 23.5875 33.7593C22.3958 33.3037 21.1498 33.0056 19.8809 32.8726C18.7902 36.3574 17.5976 39.7448 16.6133 43.3361C17.7261 43.6021 18.6883 44.0189 20.0982 43.9878C20.7987 42.2144 21.0381 39.9975 22.2796 38.7561C22.5101 40.3433 23.317 41.3542 23.5875 42.9016C25.4585 41.935 25.5738 39.2172 27.2941 38.1043C27.5557 40.0951 27.7685 42.1346 28.1808 43.9878C29.6129 44.112 30.2913 43.4824 31.6657 43.5445C31.5194 40.3921 30.2425 36.5614 29.7104 33.0809C26.3586 32.8593 26.0792 35.7013 24.4742 37.2442Z" fill="#dd2413"/>
<path d="M41.9195 33.7368C41.4362 35.2132 41.7554 37.4921 41.0327 38.7469C39.8667 38.605 38.1287 39.0351 37.3262 38.5296V33.7368C36.0192 33.6659 34.7093 33.6659 33.4023 33.7368C33.46 36.6187 33.593 41.2209 34.0541 44.4176C35.0872 44.2136 36.3774 44.2668 37.3262 43.9742C37.3971 43.1761 37.14 42.0456 37.5434 41.58C38.5366 41.6731 39.9421 41.3583 40.5938 41.7973C40.6692 42.684 40.2081 43.0077 40.3766 43.9742H44.0831C44.8207 40.6716 45.3303 37.3222 45.6083 33.9496C44.1851 34.0871 43.3915 33.5727 41.9195 33.7368Z" fill="#dd2413"/>
<path d="M13.128 32.8642C12.8753 34.0613 12.8797 35.5244 12.2413 36.3491C9.88254 37.1073 8.79185 34.9126 8.75195 32.647C7.24006 32.8775 5.47545 32.8598 4.82812 33.9771C5.39121 36.6905 6.71688 38.9561 9.62096 38.9872C10.5387 38.9872 11.3944 38.3842 12.2413 38.5438C11.758 40.7606 8.77412 40.4592 7.44401 41.8159C7.92285 42.3523 7.92728 43.3632 8.33075 43.9928C10.8181 43.2036 13.128 43.381 14.6532 41.8159C16.5109 39.9049 16.0853 36.3314 16.8435 33.0815C15.9079 32.7002 14.3828 32.9174 13.128 32.8642Z" fill="#dd2413"/>
<path d="M31.8851 11.2809C29.9033 11.3474 27.3628 12.0967 26.2144 13.245C23.6917 15.7678 24.5296 20.5429 26.4317 22.6178C27.1812 23.3663 28.0719 23.9586 29.052 24.3603C32.998 25.5795 35.809 23.2918 38.6421 22.4006C38.8815 23.3671 38.1145 23.9878 38.6421 24.5775C40.256 24.449 42.0206 24.4711 43.4394 24.1342C42.5925 15.9628 44.0778 6.1156 39.2939 2.78145C35.4631 0.121231 30.4664 2.86126 26.6534 5.18008C27.181 7.11761 28.8968 7.87577 29.921 9.32116C32.0315 7.99105 36.8997 6.66094 37.5514 10.2079C36.412 12.3228 33.8404 11.2144 31.8851 11.2809ZM29.7082 18.9113C29.9299 17.8826 31.4506 16.721 32.5413 16.0781C33.632 15.4352 35.2636 14.4598 36.2479 16.0781C35.7513 18.6231 32.6655 19.532 29.7082 18.9113Z" fill="#dd2413"/>
<path d="M9.86823 28.2845C16.0976 27.4909 22.6373 25.8637 25.1246 22.1704C23.4531 20.2329 23.4531 15.6396 24.9073 13.4493C21.8038 11.2059 15.1931 11.0152 9.64654 11.268C8.54255 11.3212 6.47645 12.199 6.16166 10.8246C5.9178 10.0044 7.0484 10.031 7.4696 9.93785C9.65985 9.49448 11.7925 9.49448 14.0093 9.2861C18.106 8.87376 22.5131 9.326 23.5994 7.10472C23.4398 4.98541 23.1294 2.4449 22.9476 0.999512C15.8537 1.80645 9.20318 3.08779 2.02058 3.83265C1.57721 4.71939 0.295869 5.40661 0.0564494 6.67022C-0.18297 7.93382 0.411146 9.88908 0.49982 11.6803C0.756974 17.1426 0.94319 23.2079 1.38656 27.8145C3.55021 29.2067 6.61833 28.6968 9.86823 28.2845ZM7.03066 16.513C11.3092 16.451 15.4104 16.5662 18.1504 18.0382C17.2237 19.5013 15.0468 19.7762 13.1359 20.2196C11.2249 20.663 9.10563 20.9512 7.25235 21.3103C6.77351 20.1176 7.15481 18.0648 7.03066 16.513Z" fill="#dd2413"/>
<path d="M82.001 30.8329C79.5935 29.6802 76.9422 30.1457 75.2574 32.0256C73.4041 34.0873 73.3021 37.1864 74.9958 39.9264C75.1934 40.2335 75.4174 40.5228 75.6653 40.791C76.2195 41.4162 76.6939 41.9615 76.5919 43.1231C75.7938 43.5665 75.6475 43.1941 75.5012 44.0099C75.1953 45.6681 78.7334 44.941 78.9905 46.4085C77.9885 46.3198 77.3279 45.8898 76.3747 45.7568C76.5875 48.5101 81.6109 48.5101 81.8237 45.7568C81.3271 45.0474 80.2896 46.2312 79.864 45.5395C80.9547 45.2646 84.4928 44.4887 82.0409 43.3581H82.0099C82.0145 43.3258 82.0145 43.2929 82.0099 43.2606V43.0079C81.9837 42.5885 82.0581 42.1689 82.2271 41.7842C84.3642 40.556 85.548 38.5653 85.477 36.313C85.4408 35.1721 85.0992 34.0619 84.4878 33.098C83.8764 32.1341 83.0177 31.3519 82.001 30.8329ZM80.467 40.9639C80.4262 41.6995 80.3344 42.4313 80.1921 43.1542C79.8374 43.4113 79.1191 43.3005 78.5383 43.3271L78.4319 43.3626C78.3015 42.5971 78.22 41.824 78.188 41.0482C78.0728 39.2303 78.0196 37.4347 76.8579 36.0425C76.8669 35.9897 76.8669 35.9357 76.8579 35.8829H77.3855C77.4009 35.8994 77.4207 35.9111 77.4426 35.9164C77.4645 35.9218 77.4874 35.9206 77.5086 35.9131C77.5299 35.9055 77.5484 35.8919 77.562 35.874C77.5756 35.856 77.5836 35.8344 77.5851 35.812C77.5851 35.209 77.8333 35.812 78.1127 35.9317C78.392 36.0514 78.7467 35.4262 78.8575 35.2533C79.3009 34.5927 79.0748 35.8962 79.4162 36.1046C79.7576 36.313 80.0945 35.8075 80.3517 35.5238C80.6709 36.1844 81.0566 36.1356 81.5976 35.639C81.5852 35.8188 81.6388 35.997 81.7483 36.1401C81.7829 36.1725 81.8245 36.1965 81.8698 36.2103C81.9152 36.2242 81.9631 36.2274 82.0099 36.2199C80.7286 37.5145 80.5911 39.2658 80.467 40.9639Z" fill="#dd2413"/>
<path d="M93.36 39.1856C94.3176 38.1349 95.3906 37.8068 95.5369 36.3481C95.9803 32.0385 88.7666 31.471 86.1641 34.1711C86.2189 37.8915 86.5151 41.6044 87.0508 45.2864C90.6731 46.2042 96.202 45.4327 95.7719 41.8015C95.5945 40.4093 94.4994 40.0103 93.36 39.1856ZM90.7441 43.7612C90.9081 42.5774 90.3982 42.072 90.5268 40.9281C90.9436 40.6665 92.256 40.9724 92.4865 41.5843C92.4865 42.8878 91.6131 43.3223 90.7441 43.7612ZM90.3007 38.3122C90.0524 36.3037 90.1677 33.7987 92.4777 35.0401C92.9122 36.5343 92.185 38.4275 90.3096 38.3122H90.3007Z" fill="#dd2413"/>
<path d="M95.3307 2.55929C90.7285 -2.47296 80.531 0.68827 77.2368 5.39686C78.3298 7.03739 79.7373 8.4449 81.3779 9.53794C83.5548 8.30094 85.5899 6.91762 89.2255 7.13931C89.9482 7.72455 90.6886 8.29207 90.7507 9.53794C89.0171 11.3868 86.2328 10.3005 83.9938 10.4247C78.6112 10.6863 73.4637 14.3308 75.0554 21.3272C75.4722 23.1671 77.9728 25.5303 80.0699 26.1244C83.71 27.153 87.3501 25.681 90.0945 24.1603C90.1965 25.2244 89.8684 26.7141 90.3162 27.4324C92.5641 26.989 95.6633 27.4013 97.7249 26.7762C96.9934 17.8556 99.9772 7.65361 95.3307 2.55929ZM81.1429 19.7842C81.941 16.6806 86.1574 13.0893 89.425 15.8604C88.7777 19.1413 85.1332 20.5513 81.1429 19.7842Z" fill="#dd2413"/>
<path d="M54.5402 33.9546C55.0988 36.7922 53.2943 40.6051 51.707 40.2771C49.2862 39.7982 51.3346 35.5862 51.9243 33.9546C50.6252 33.6531 48.8207 33.8482 47.566 33.5112C47.0206 36.6725 45.2072 43.9127 48.6567 44.8482C51.2326 45.5443 52.6958 43.0038 54.5402 42.0151V44.1964C55.9678 44.3117 57.0231 44.059 58.2468 43.9748C58.096 40.4943 58.1625 36.7922 57.8034 33.5112C56.724 33.7152 55.6348 33.8631 54.5402 33.9546Z" fill="#dd2413"/>
<path d="M55.8684 1.47307V11.0853H51.0667C50.8139 8.07928 50.9204 4.01358 50.6233 1.71249C50.6233 1.71249 45.3029 1.78342 44.957 2.15586C45.3383 9.77 45.8467 17.2541 46.4822 24.6081C48.3738 24.6853 50.2684 24.6127 52.1485 24.3909C52.3303 21.9302 51.2618 17.7403 51.4967 15.2353C52.3835 15.2663 55.292 15.0358 56.5113 15.4525C56.5467 18.2945 56.4536 22.0321 56.5113 24.1736C58.3778 24.0051 60.5016 24.1071 61.9603 23.5219C61.8007 16.0511 61.5967 8.62019 61.0735 1.5041C60.7454 1.11394 55.8684 1.47307 55.8684 1.47307Z" fill="#dd2413"/>
<path d="M65.2372 29.5917C65.7028 28.665 64.9269 27.8182 65.6806 27.193C68.7133 27.193 71.4444 26.8561 74.3973 26.7497C74.681 27.4103 74.4904 28.5453 75.0534 28.9311C75.9402 28.6384 77.3634 28.9311 78.5428 28.4877V26.0935C74.8185 24.3865 72.7169 18.3434 75.4835 14.3309C75.0401 11.1874 75.3771 4.9137 75.2663 1.47314C71.2759 1.56182 67.8531 2.19584 63.712 2.1249C63.712 8.74885 64.315 16.6275 64.3682 23.9254C63.0825 24.2402 62.2711 25.0294 60.8789 25.2334C61.105 26.896 61.6858 28.2039 61.9696 29.8134C63.0292 29.707 64.5234 30.0395 65.2372 29.5917ZM69.6133 11.9367C70.7084 12.2736 72.3134 16.7118 72.0075 18.0375C71.6129 19.7799 69.5956 20.1789 68.0881 20.875C66.9531 17.6606 68.026 13.8033 69.6133 11.9367Z" fill="#dd2413"/>
<path d="M72.2111 35.9142C71.444 34.7171 70.7125 33.4889 69.3735 32.8638C67.968 34.0121 66.802 36.5171 65.2324 36.7876C65.6093 35.6659 65.1748 34.9742 65.4541 33.9545C64.1816 33.4579 62.519 33.7461 61.3086 33.7372C61.6988 36.9073 61.2731 40.8932 61.752 43.9791C63.02 43.8682 64.758 44.2273 65.6758 43.7618C65.5827 42.7642 65.3433 41.913 65.4585 40.7114C66.0216 40.6227 66.1147 40.0597 66.762 40.0552C67.4537 42.0548 68.7306 43.4647 69.3779 45.5087C70.6194 45.0653 71.8298 44.6219 72.4327 43.5446C71.382 41.5361 69.6085 40.2547 68.7217 38.0955C69.8789 37.364 71.0539 36.6457 72.2111 35.9142Z" fill="#dd2413"/>
</svg>
